<svg id="Layer_1" data-name="Layer 1" xmlns="http://www.w3.org/2000/svg" viewBox="0 0 940 199.25"><defs><style>.cls-1{fill:#faaf40;}.cls-2{fill:#fff;}</style></defs><title>complete</title><path class="cls-1" d="M827.55,209.81a7,7,0,0,1-1.09-.09,6.59,6.59,0,0,1-1,.07,6,6,0,0,1-4.57-2,4,4,0,0,1-.41-.55,7.71,7.71,0,0,1-4.25,1.69,3.8,3.8,0,0,1-2.77-1.25c-2.27-2.52-2.25-5.9,0-10.41-7.62,7.68-13.47,11.93-17.89,12a6.35,6.35,0,0,1-5-2.14c-6.6-7.33,3.88-23.3,28.92-50.1l-4,3.11-4.33,4.52c-32.66,34.12-42.3,43.45-47.22,43.45h-.06a4.1,4.1,0,0,1-3-1.35,5.47,5.47,0,0,1-.49-.63c-3,1.76-5.51,2.68-7.61,2.68h0a6.44,6.44,0,0,1-4.93-2.11c-2.77-3.07-1.63-8.09,5.63-17.8-16.78,14.77-23.54,19-26.56,19h-.1a4.08,4.08,0,0,1-2.93-1.33c-2.85-3.16-2.44-7.58.67-13.3-10.69,9.75-18.69,15.23-23.8,15.23h0a6.32,6.32,0,0,1-4.82-2.07l-.25-.3A9.41,9.41,0,0,1,691,207.8h-.08a4.27,4.27,0,0,1-3.12-1.39,6.3,6.3,0,0,1-1.26-2.13c-6.8,4.71-11.51,5.14-14.29,2.05-.24-.26-.45-.51-.62-.74-3.08,2-5.76,3-8.08,3.07a7.62,7.62,0,0,1-5.67-2.41,3.28,3.28,0,0,1-.44-.62c-2.15,1.41-3.63,2-5,2a4.23,4.23,0,0,1-3.12-1.38c-2.76-3.06-2.76-3.06,24.89-30.22,20.31-19.95,61.12-60,67-71.68-8.3,4-31.19,29.53-48.29,48.62-30.76,34.35-50.14,55.21-59.81,55.22h0a6.19,6.19,0,0,1-4.75-2,4.45,4.45,0,0,1-1.13-4.18c-5.66,4.13-10.29,6.39-13.79,6.39h0a7.07,7.07,0,0,1-5.41-2.31,4,4,0,0,1-.43-.57c-2.79,1.66-5.15,2.52-7.11,2.53h0a6.13,6.13,0,0,1-4.69-2,7.12,7.12,0,0,1-1.1-1.63c-3.9,2.59-7.22,4-10,4h-.09a7.43,7.43,0,0,1-5.69-2.46,4.42,4.42,0,0,1-1.2-2.85c-4.73,3.11-8.53,4.82-11.11,4.66a7,7,0,0,1-1.48-.17c-.3,0-.6,0-.88.06a5.68,5.68,0,0,1-4.29-1.86,5.27,5.27,0,0,1-1.11-4.79c-5.31,4.28-9.51,6.56-12.63,6.56h0a5.91,5.91,0,0,1-4.53-1.95,7.32,7.32,0,0,1-.84-1.14c-3.39,2.23-6.33,3.41-8.86,3.46a7.38,7.38,0,0,1-5.8-2.47c-2.91-3.23-2.91-3.23,34-41,20.07-20.58,49.5-50.74,55.92-60.1-12.43,1.95-47.34,41-70.63,67-25.13,28.1-32,35.23-36.3,35.23h0a4,4,0,0,1-3-1.32c-5.83-6.48,6.87-21.25,50.67-65.38,12.65-12.74,27.89-28.1,33.14-35.06-11.75,5.54-45.43,41.55-64.34,61.76-29.67,31.73-37.82,39.77-42.45,39.77h0a4.07,4.07,0,0,1-3-1.34c-1.73-1.92-1.75-4.43.57-8.45-7.15,6.57-12.54,10.14-16.28,10.15h0a5.75,5.75,0,0,1-3.78-1.32,7.8,7.8,0,0,1-3.33.92h0a4.71,4.71,0,0,1-3.54-1.54,7.42,7.42,0,0,1-1.82-5.56c.7-12.21,26.45-35.81,62.74-67.81,12.28-10.83,26-22.89,30.52-28.32-2,.4-5.27,1.77-10.59,5.45C530,119,512,134,484.69,156.19l-6.44,5.23c-10.24,11-22,24-35.43,39.38-4.23,4.84-4.23,4.84-5.78,4.86a3.94,3.94,0,0,1-2.54-1.12,7.07,7.07,0,0,1-1.76-5.42,11.22,11.22,0,0,1,.92-3.49c-8.24,7.29-12.43,10-14.81,10h-.09a3.91,3.91,0,0,1-2.83-1.28c-1.33-1.48-1.75-3.17,0-6.41-6.82,6.07-9.36,7.57-11.27,7.49a4,4,0,0,1-2.64-1.21c-3.74-4.16-.5-11.31,11.93-25.45-16,17.19-26.82,27.09-33.09,27.1h0a5.72,5.72,0,0,1-4.38-1.89,3.66,3.66,0,0,1-1.1-3.45c-4.68,3.48-8.48,5.32-11.45,5.32h0a6.42,6.42,0,0,1-4.91-2.11,6.83,6.83,0,0,1-1.7-5.08c.53-9.25,17.14-24.36,44.19-48.24,19.65-17.35,44.06-38.9,44.93-47.17a31.82,31.82,0,0,0-6.47,4.54c-5.75,11.12-25.38,29.49-50.61,51.24-30.15,31.87-44.54,46-51.54,46h-.06a5,5,0,0,1-3.72-1.62,3.79,3.79,0,0,1-.85-1.8c-3,2.13-5.23,3.13-6.94,3.13h0a4.57,4.57,0,0,1-3.4-1.49,5.54,5.54,0,0,1-1.39-4.14c-4.48,3.71-7.6,5.43-9.85,5.43h0a4.61,4.61,0,0,1-3.44-1.5h0a11.82,11.82,0,0,1-5.49,1.78h0a5.79,5.79,0,0,1-4.26-1.75,7.86,7.86,0,0,1-3.7,1.2h0a4.46,4.46,0,0,1-3.18-1.29,12.34,12.34,0,0,1-5.57,1.73h-.06a6.17,6.17,0,0,1-4.72-2c-8.08-9,10.47-26.81,44-57.57,8.68-8,19.66-18.06,28-26.68-9,8-22.15,18.8-40,33.19L306.39,157l-1.75,2c-28.13,31.95-40.27,45-47.18,45a5.35,5.35,0,0,1-2.26-.47,5.72,5.72,0,0,1-1.59.24h0a4.62,4.62,0,0,1-3.48-1.51,7.6,7.6,0,0,1-1.86-5.66,16.1,16.1,0,0,1,1.73-5.91c-10.87,9.73-15.29,12.49-17.75,12.47a3.85,3.85,0,0,1-2.77-1.26,6.68,6.68,0,0,1-.68-.91c-3.17,1.83-6,2.8-8.4,2.83a7.93,7.93,0,0,1-6.21-2.64c-3.22-3.58-4.2-4.67,55.62-70.07,7.89-8.63,15.93-17.42,21.78-24-15.83,12.77-44.26,41.94-61.39,59.51-30.3,31.08-35.14,35.57-38.5,35.57h-.08a4,4,0,0,1-2.67-1.21c-.9-1-1.6-1.78-.9-3.6-4.51,3.56-7.61,5.23-9.74,5.23h-.08a4.42,4.42,0,0,1-3.25-1.44c-3.93-4.37,1-12.11,29.94-42.94l-9,7.2c-30.73,28.79-40.82,36.91-44.59,36.91h-.1a3.66,3.66,0,0,1-1.07-.22,3.77,3.77,0,0,1-1.16.13,3.69,3.69,0,0,1-2.53-1.16c-2.09-2.31-2.09-2.31,10.4-15.83,7.73-8.36,21.87-23.67,36.14-39.28C154,185.61,136,202.4,128.52,202.4h-.11a4.93,4.93,0,0,1-3.23-1.23,10.93,10.93,0,0,1-4.87,1.47h0a5.61,5.61,0,0,1-4.29-1.85,3.58,3.58,0,0,1-.89-2.43c-3.23,2.2-5.76,3.16-7.75,3.23a5.22,5.22,0,0,1-3.9-1.7,6.47,6.47,0,0,1-1.46-2.68,14.42,14.42,0,0,1-3.53.54h-.16A8.47,8.47,0,0,1,91.78,195a6.5,6.5,0,0,1-1.66-4.47A4.16,4.16,0,0,1,88,189.27c-2.56-2.83-2.56-2.83,26.24-36.58,13.94-16.34,33.56-39.33,41.74-50.42-7.3,6.14-19.39,20.3-28.08,30.48C108.76,155.17,96.65,168.91,89.18,169H89.1a5.83,5.83,0,0,1-4.4-1.92c-4.58-5.08,3-14.58,25.79-40.44,6.79-7.7,15.36-17.42,19.93-23.7-6.66,5.7-17.09,16.94-23.45,23.81C93.6,141.2,91.8,142.87,89.25,142.83a3.86,3.86,0,0,1-2.66-1.19c-2-2.18-1.86-3,7.92-24L96.68,113a3.58,3.58,0,0,1-1.72.42,3.47,3.47,0,0,1-2.52-1.13,3.38,3.38,0,0,1,.24-4.76,3.48,3.48,0,0,1,.74-.51c.54-.51,1.61-1.67,2.42-2.54,5-5.37,7-7.26,9.25-7.26h0a4,4,0,0,1,2.7,1.21c1.95,2.16,1.68,3-7.22,22.1-.93,2-1.95,4.19-2.95,6.36l4.35-4.68c19.25-20.78,28.19-29.49,33.6-29.49h0a4.75,4.75,0,0,1,3.55,1.55c4,4.47-1.23,11.41-23.66,36.86-8.81,10-21.57,24.47-24.67,30.57,6.38-3.43,21.52-21.16,31.89-33.31,18.94-22.19,30.92-35.79,38.26-35.89a5.76,5.76,0,0,1,4.43,1.89c2.25,2.5,3.27,3.63-17.62,28.93,18-19.12,31.59-31.16,39.79-31.18h0a7.26,7.26,0,0,1,5.57,2.39,5.18,5.18,0,0,1,1.28,4c0,.18,0,.37-.07.56,4.73-5.56,4.8-5.56,6.35-5.58a3.37,3.37,0,0,1,2.55,1.12,6.63,6.63,0,0,1,1.7,4.38c5-4,8.62-5.9,11.27-5.9h0a5.24,5.24,0,0,1,3.93,1.71,5,5,0,0,1,.79,1.17c3.11-2,5.73-3,7.88-3h0a6.09,6.09,0,0,1,4.66,2,3.45,3.45,0,0,1,.7,1.23c2.5-1.83,4.08-2.56,5.23-2.38a3.82,3.82,0,0,1,2.8,1.26c1.93,2.14,2.82,3.13-20.35,29.06,21.73-20.65,33.6-30.23,38.58-30.23h.11a4.76,4.76,0,0,1,1.86.43,3.12,3.12,0,0,1,1-.09A3.47,3.47,0,0,1,266,95.33c3.54,3.93,1.27,7.51-37.66,48.07-14.92,15.55-35.93,37.43-44.22,48.56,10.41-8.51,30.57-29.21,46.17-45.23,35.57-36.53,51.92-52.61,58.55-52.61h.08a4.51,4.51,0,0,1,3.31,1.47,3.41,3.41,0,0,1,1.14,2c3.73-2.41,6.7-3.62,8.65-3.52a5.13,5.13,0,0,1,3.83,1.68c2.7,3,2.7,3-31.06,39.91-19.28,21.08-47.55,52-53.73,61.36,2-.3,4.55-1.66,7.55-3.83,4.12-10.8,23.06-28.68,49.72-52l1.23-1.43c27-31.34,39.56-45.09,46.84-45.17a5.39,5.39,0,0,1,4.19,1.79,4.06,4.06,0,0,1,1,3c-.27,4.28-7.42,11-35.71,35.46-3.68,3.18-8.07,7-12.78,11.1-8.51,9.88-16.27,18.79-23.29,26.48,10.45-9.87,22.18-21.24,32.28-31,40.57-39.36,48.07-46.05,51.7-46.05h.1a3.76,3.76,0,0,1,3.59,4.07,7.21,7.21,0,0,1-1.57,3.64c6.8-5.52,12.2-8.53,16.17-8.53.2.06.65,0,1,.06a8.15,8.15,0,0,1,7.7,2.22c7.27,8.07-9.14,23.83-41.24,53.31-12.15,11.16-24.72,22.7-33.24,32.1C286,193.48,285.81,197.16,286,198c1.08,0,2.69-.83,4.7-2.26,2.93-6.6,13.65-16.89,32.92-33.34,4.23-4.76,8.34-9.46,12-13.69,29.25-33.43,47.72-53.73,57.6-53.8h.06a6.6,6.6,0,0,1,4.33,1.51,13.82,13.82,0,0,1,5.58-1.45h0a7.3,7.3,0,0,1,3.35.78,11,11,0,0,1,3.53-.68,6.66,6.66,0,0,1,5.27,2.24,12.68,12.68,0,0,1,5.58-1.71H421a5.73,5.73,0,0,1,4.35,1.88,5.27,5.27,0,0,1,1.28,2.69c4-2.85,7-4.34,9.43-4.21a5.27,5.27,0,0,1,4,1.74,6.32,6.32,0,0,1,.83,1.17c2.74-1.77,4.92-2.63,6.64-2.63h.06a5,5,0,0,1,3.71,1.62,7.57,7.57,0,0,1,1.88,5.63c-.18,3.22-2.07,7-5.49,11.58,12.38-12.83,19.76-18.72,24.59-18.73h0a5.44,5.44,0,0,1,4.11,1.77c1.24,1.39,1.85,2.06-1.06,5.56,5.87-4.87,10.47-7.47,13.88-7.47h0a6.2,6.2,0,0,1,4.75,2c4.25,4.72-2.59,12.28-36.35,45.45-15.41,15.15-39.24,38.56-47.44,50.41,8.88-7.8,25.11-23.72,39.86-38.2,44.86-44,60.89-58.8,66.52-58.8h.1a4.05,4.05,0,0,1,2.92,1.32c1.36,1.51,2.22,2.46-.62,6.2,6.38-5.46,9.78-7.29,11.75-7.37a3.88,3.88,0,0,1,2.8,1.27,7.63,7.63,0,0,1,1.27,1.93q7.07-4.22,11.34-4.26h.08a7.65,7.65,0,0,1,5.91,2.48,4.1,4.1,0,0,1,1,3,5.45,5.45,0,0,1-.49,1.89c5.73-4.44,10.3-6.85,13.66-6.85h0a6.8,6.8,0,0,1,3.05.69,11.68,11.68,0,0,1,3.29-.64,6.33,6.33,0,0,1,4.84,2.08c1.35,1.5,1.69,3.24.23,6.14,6.36-5,11.33-7.65,14.84-7.65h.07a6.08,6.08,0,0,1,4.62,2c2.09,2.31,1.85,4.87-4.54,12.51,10.22-9.06,18.43-14.36,24.1-14.37h0a7.8,7.8,0,0,1,6,2.55c1.2,1.33,1.82,2.62-.13,6.05,6-5.2,10.74-8,14.53-8.08a7.23,7.23,0,0,1,5.53,2.35,6.46,6.46,0,0,1,1.49,2.79c4.34-3.34,7.8-5.11,10.41-5.11h0A5.59,5.59,0,0,1,659,99.85c1,1.09,1.59,1.76.75,3.34,5.18-4,9.41-6.07,12.79-6.09a8,8,0,0,1,4.15,1.21,4.29,4.29,0,0,1,.9-.05,3.54,3.54,0,0,1,2.53,1.14,4.14,4.14,0,0,1,1,4.32c4.91-4.16,8.77-6.34,11.74-6.37a5.84,5.84,0,0,1,4.46,1.9,3.77,3.77,0,0,1,.9,2.62c-.06,1-.32,1.85-2,3.72,6.33-5.59,10.77-8.23,14-8.23h0a5.49,5.49,0,0,1,4.15,1.79,4.18,4.18,0,0,1,1,3.05v.14c3.9-3.39,6.26-4.61,8.16-4.61h0a4.18,4.18,0,0,1,3.15,1.38c1.65,1.83,2,4.17,1.06,7.14,6.67-6,11.72-9.18,15.26-9.18h0a5.66,5.66,0,0,1,4.33,1.87c1.62,1.8,1.88,4.25-.43,8.62,8.17-7,14-10.78,17.88-10.72a6,6,0,0,1,1.67.25,13.34,13.34,0,0,1,5-1.24h.18a7.79,7.79,0,0,1,6,2.61,2.92,2.92,0,0,1,1.07,2.29c6.71-5,11.07-5.46,13.68-2.56a4.35,4.35,0,0,1,1.08,3.23,5.73,5.73,0,0,1-.46,1.85c5.69-4.65,9.64-6.74,12-6.78a4.5,4.5,0,0,1,3.3,1.47l.25.29a9,9,0,0,1,4.53-1.7h0a4.32,4.32,0,0,1,3.23,1.42c5.4,6-4.78,16.51-37.7,47.46-13.56,12.75-27.59,25.94-37.52,37-9.16,10.26-11.71,15.34-12.31,17.72,10.07-6,43.82-37.09,100.53-92.47,11-10.7,11-10.69,12.48-10.65a3.38,3.38,0,0,1,2.41,1.12c2.91,3.23,2.67,3.53-25.76,31.64-17.34,17.15-49.91,49.36-61.3,65.17,2.88-2.19,6.7-5,11.78-8.73,11-10.14,25.1-23.78,37.58-35.8l5.6-5.4C842,111.93,855.9,97.4,863.25,97.4h0a5.48,5.48,0,0,1,2.45.56h.15a4.08,4.08,0,0,1,2.64,1.22,3.42,3.42,0,0,1,.72,1.29A13.13,13.13,0,0,1,875,98.59a5.3,5.3,0,0,1,4,1.74c3,3.31,1.62,4.66-21.12,27.17-14,13.84-31.38,31.06-44.55,46.33-21.15,24.52-17.82,28.77-17.78,28.81l.25,0c5.67,0,26.94-25.43,41.08-42.34,25.18-30.12,41.2-48.41,51.24-48.6a7.22,7.22,0,0,1,5.71,2.43c4.41,4.89-2,11.9-31.32,39.76-13.64,13-37.33,35.47-42.84,45.48,6.5-5.57,18.77-17.93,29.06-28.32,29.37-29.61,39.38-38.93,44.12-38.93h.09a4.06,4.06,0,0,1,3,1.33,3.9,3.9,0,0,1,1,2.85,6.31,6.31,0,0,1-1.11,2.89,5.47,5.47,0,0,1,.64.6,4.47,4.47,0,0,1,1.12,3.31c.89,2.81-1.62,6.79-9.63,15.43,3.92-3.46,5.49-4.15,7.1-4.2a4,4,0,0,1,2.66,1.21c2.08,2.31,1.48,5.33-2.13,10.3h.39a4.17,4.17,0,0,1,2.77,1.23c2.35,2.6,1.08,4.27-7.18,15.13-2.19,2.87-5.29,7-7.94,10.71,2.53-2.59,5.83-6.18,10.13-11.15,2.1-2.42,2.53-2.93,4.1-2.94h0a3.37,3.37,0,0,1,2.5,1.11c1.33,1.46,1.37,2.53,0,4.58a3.4,3.4,0,0,1,1.29.89c1.28,1.42,1.69,2.17-.06,4.75a3.37,3.37,0,0,1-1,3.45,3.22,3.22,0,0,1-.71.49c-.41.4-1,1.06-1.68,1.77-3.35,3.58-4.8,5.05-6.82,5.05a3.68,3.68,0,0,1-1.37-.29c-2.84,2.51-3.26,2.49-4.39,2.43a3.43,3.43,0,0,1-2.08-.84c-3.63,3.12-5.77,4-7.48,4a4.48,4.48,0,0,1-3.37-1.45c-1.7-1.88-1.64-4.23.71-8.55-8.67,8.94-12.61,12-15.71,12h0a4.24,4.24,0,0,1-3.16-1.4c-1.49-1.66-1.55-3.4.34-6.34-7.25,6.79-10.22,8.64-12.31,8.47a3.83,3.83,0,0,1-2.81-1.27,4.35,4.35,0,0,1-1.21-3.42c-4.36,3.56-8,5.47-10.9,5.5ZM704.43,199.3a29.34,29.34,0,0,0-2.07,2.47c6.23-1.91,22.13-17.24,38-33.64-8.14,6.64-16.5,13.51-23.38,19.49C711.93,192.49,707.82,196.33,704.43,199.3Zm-108.1-11.36c-5.85,6-10.18,10.93-11.54,13.63,2.37-.17,5.9-2.32,10.18-5.82,2.34-5.73,8.14-13.2,16.28-21.88Q603.13,181.79,596.33,187.94Zm20,10.91a27.62,27.62,0,0,0-2,2.62c11.13-2.15,44-38.12,66.69-63.05-4.24,3.82-9,8-14.2,12.72-8.62,7.7-18.5,16.5-27.39,24.71C630.31,185.62,622.61,193.4,616.28,198.85Zm-15.68,2.38h0c2.06,0,6-2.7,10.94-7.06,4.42-5.38,12-12.85,23.12-23.1,7.4-7.92,14.89-16.22,21.31-23.33,13.87-15.37,24.49-27,32.7-35.12-3.55,3.16-8.44,7.41-15.18,13.22-6.22,5.37-13.77,11.88-21.61,18.83l-4.77,5.5c-19.36,22.32-34.81,39.75-46.41,49.5a6.45,6.45,0,0,0-.13.95A2.22,2.22,0,0,0,600.6,201.24Zm77-41.42L672.94,164c-15,13.63-33.33,30.21-38,37C642.41,198,661.27,177.87,677.59,159.82ZM546.54,200a3.62,3.62,0,0,0-.07.48,1.55,1.55,0,0,0,0,.3c6.48-.59,30.29-26.48,48.31-46.42-7,5.63-14.59,11.67-21.58,17.53C562.53,184.23,553.73,193.8,546.54,200Zm-2-9.89c-3.78,4-7,7.41-9.35,10a34.73,34.73,0,0,0,5.62-3.94A29.37,29.37,0,0,1,544.5,190.06Zm149.63,8.15a13.13,13.13,0,0,0-.77,1.49,78.36,78.36,0,0,0,6.7-5.46,166,166,0,0,1,12.49-11.73c9.45-9.2,20.5-20.47,30.4-30.57L753,141.68l-.24.21c-7.34,6.33-16.85,14.51-26.11,22.84C713.41,179.31,702.61,190.71,694.13,198.2ZM432.07,131.8c-7.14,6.84-15.93,14.69-26.13,23.69-16.27,14.37-43.5,38.41-41.91,43.81,6.26,1.35,37.49-33.47,56.08-54.23Q426.56,137.87,432.07,131.8Zm86.38,5c-23.31,20.55-57.82,51-59.89,62,6.87-4.09,25.92-25,41.49-42C506.6,149.63,512.74,142.94,518.45,136.83Zm-71.86-4.29c-21.54,21.29-53.35,53.09-62.18,65.09,9.52-6.23,31.1-30.41,46.08-47.2Q439.15,140.73,446.59,132.54Zm-87.52,34.9c-12.47,10.92-24.59,22.06-29.11,28.29C336.17,191,347.45,179.58,359.07,167.43Zm-250.52,27,0,.09a18.6,18.6,0,0,0,3.77-2.31Q110.34,193.51,108.55,194.48Zm439.55-36.4c-12.22,12.48-25.42,26.36-32.17,35.27,6.46-6.55,15.78-17,24.36-26.56Q544.26,162.34,548.1,158.08ZM98.23,186.92c-1,1.58-1.53,2.84-1.36,3.73a2.27,2.27,0,0,0,1.45.38h.07a13.2,13.2,0,0,0,5.21-1.5c5.36-9.68,22.38-24.1,47.63-44.84,3.58-2.94,7.63-6.27,11.82-9.77,4.78-5.26,9.89-11,15.36-17.26-7.06,6.15-16.57,13.83-28.8,23.58-10.2,8.13-23.89,19-34.76,28.66C107.22,178.31,102,183.73,98.23,186.92ZM630.32,132.2c-17.79,16.85-44.13,42.16-57.15,57.64,6.13-5.63,15.39-13.92,29.4-26.32,2.75-3.11,5.45-6.18,8-9.08C617.74,146.25,624.32,138.82,630.32,132.2Zm-311-3.48-3,2.65c-19,17-48.59,43.66-58.23,58.35,5.41-5.85,14.78-14,28.62-25.45,2.48-2.73,4.94-5.45,7.31-8.07C303.31,146,311.73,136.76,319.32,128.72ZM175.66,151.07l-.63.7c-8.7,9.69-16.4,18.23-23.15,25.4,13.61-12.81,30.19-29.71,42.29-42l3.35-3.4C190.81,137.58,183.24,144.26,175.66,151.07Zm546.26-9.92c-7.24,7.44-14.43,15-20.72,21.58-5.08,5.34-9.63,10.09-13.69,14.3q7.68-6.37,14.6-12.22c3.82-4.51,7.61-9.07,11.23-13.41Q717.79,146.06,721.92,141.15ZM579.64,153.87q-6.72,6.94-14.78,15.2l-6.86,7q4.69-4.25,10.48-9.09C572.23,162.65,576,158.2,579.64,153.87Zm-127,14.55c-2.58,2.47-5.1,4.9-7.53,7.27C447.6,173.34,450.13,170.9,452.68,168.42Zm-17.77-65.55c-8.31,2.93-37.29,33.62-56.78,54.26q-6.91,7.31-12.71,13.4c5.49-4.62,12.22-10.32,19.33-16.46l5.5-5.83c21.06-22.35,35.13-37,44.55-44.85A4,4,0,0,0,434.91,102.87Zm52,.58c-9.35,4.4-34.29,32.35-51.34,51.46q-7,7.9-13.23,14.75c7.84-8.28,18-18.41,30.6-30.84C466,125.9,482,110.26,486.87,103.46Zm-272.72-2.89c-8.67,4.74-32.33,30.19-50,49.24q-7,7.56-13,13.94c7-6.26,15-13.55,23-21,16.67-18.53,29.73-32.71,39.5-41.12C213.78,101.26,214,100.9,214.15,100.56Zm673.42,18c-7.92,1.47-28,25.21-43.62,43.83q6.35-6.19,13.91-13.35C869.74,137.72,884.23,123.95,887.57,118.52ZM353.82,145.81c-3.63,3.93-7.13,7.76-10.34,11.29l3.38-2.78,2.93-3.34,6-6.81Zm169.67,4.54-5.09,5.71-.71.81q5.41-5.2,11.7-11.18c8.87-8.44,19.42-18.47,27.79-26.92C549.79,125.95,539,136,523.49,150.35ZM637.4,104.71h0c-6.59.11-24.28,20-40.82,39.56,17.76-14.24,42.26-34.36,41.17-39.54C637.69,104.75,637.64,104.71,637.4,104.71Zm82.92,2.18c-6.87,5.89-20.61,21-33,34.64L686,143C700.81,129.24,716,114.38,720.32,106.89Zm73.3,4.62c-7.89,7-18.57,17.53-29.2,28.24,4-3.35,8-6.72,11.87-10C783.25,122.26,788.94,116.25,793.62,111.51ZM187.42,98.88c-7.22.4-25.38,18.78-42.43,37.41l.41-.33C161.94,122.78,184.24,105,187.42,98.88Zm574,9.44c-7.21,6.07-16.51,16.26-26,27.26Q755.74,116.95,761.47,108.32Zm-95.32-1.6c-5,3.43-11.55,9.65-18.77,17.1C654.93,117.06,661.59,111,666.15,106.72ZM358.6,103.78c-5.64,3.72-13.29,10.9-21.6,19.49C346.27,115.5,354.34,108.39,358.6,103.78Zm344.71,4.44a210.4,210.4,0,0,0-15.56,15C694,117.45,699.5,112.2,703.31,108.22Zm79-1.94a163.53,163.53,0,0,0-14.23,13.32C773.84,114.51,778.93,109.82,782.36,106.28ZM396,111.08c-2.6,2.42-5.42,5.2-8.35,8.2C390.86,116.32,393.69,113.55,396,111.08ZM96.2,106.89a3.35,3.35,0,0,1,1.24.86A3.26,3.26,0,0,0,96.2,106.89ZM417,103.8a15.53,15.53,0,0,1-1.33,3.86,27.5,27.5,0,0,0,3.77-5.09A13.7,13.7,0,0,0,417,103.8Z" transform="translate(-30 -50.37)"/><path class="cls-2" d="M122.92,92.34c-13.56.73-28.72-2.28-37.54,10-5.08,7.08-4.64,22.86-5.36,31.3-1.27,14.72-.27,29.55.49,44.27.9,17.47,16.12,20.69,31,22,28.72,2.59,58.17,1.7,87,1.57,7.11,0,7.11-11,0-11q-25.37-.15-50.74-.84c-10.51-.27-53.92,4.47-55.68-11.74-1.79-16.58-1.57-33.94-.8-50.58.55-11.85.35-24.06,14.58-25.4,6.14-.58,12.1-.54,18.19-1.66,4.51-.83,3.45-8.21-1.08-8Z" transform="translate(-30 -50.37)"/><path class="cls-2" d="M110.85,100.24c107.22-1,214.16,3.34,321.31,4.93,106.21,1.57,212.54,0,318.77.34l76.61.25,38.31.13,19.15.06c13.47,0,12.77,18.08,14,27.14,1.6,12,1.27,24.21.33,36.27-.08,1.09-1.43,22.84-5.79,23.19-6.29.5-12.69.45-19,.67q-41.25,1.39-82.51,2.06c-102.63,1.8-205.12-1-307.73-2-108.86-1.09-217.79,1.5-326.59-3-7-.29-7,10.6,0,10.89,93.93,3.93,188,2.61,282,2.86,100.5.26,200.93,3.69,301.44,3,51.54-.36,103.92.56,155.32-3.54,14.05-1.12,12.86-24,14-34.07,2.11-18.76,3-50-7-67.05-8.07-13.77-37.68-7.56-50.36-7.61l-83-.3q-79.79-.29-159.58-.56C527.74,93.6,445,95.27,362.23,92.45c-83.9-2.86-167.56-2.59-251.38,2.34-3.48.2-3.54,5.48,0,5.45Z" transform="translate(-30 -50.37)"/><path class="cls-2" d="M30.37,54.32c2.37,29.66,1.12,59.58.63,89.29s-2.64,60.7,1.49,90.3c.59,4.25,7.58,3.19,7.41-1-2.28-59.34,2.72-119.46-3.06-178.59-.4-4.1-6.81-4.18-6.47,0Z" transform="translate(-30 -50.37)"/><path class="cls-2" d="M34.13,60.44c66.89,3.84,134.46-1.9,201.43-2.1,61.16-.19,121.77,6,182.74,9.62,59.45,3.58,119.29,2.35,178.83,2.37q97.13,0,194.26-.53,82.84-.4,165.68-.79c5.1,0,5.1-7.92,0-7.91-125,.35-250,1.23-375,1.15-59.09,0-118.3.74-177.29-3.2-61.6-4.12-122.73-9.19-184.55-8.65S95.94,51.64,34.13,55.31a2.56,2.56,0,0,0,0,5.12Z" transform="translate(-30 -50.37)"/><path class="cls-2" d="M36.12,236.28c75.56,1.72,151.1,3.93,226.66,5.87,37.84,1,75.69,1.57,113.55,1.38s75.53-2.62,113.31-3c69.78-.64,139.21,8.84,209,8.8q79.86,0,159.73.11,48.34.1,96.68.14c5.1,0,5.1-7.91,0-7.91q-81.24,0-162.49-.21c-55.15-.16-110.47,1-165.54-2.29-36.88-2.19-73.67-5.6-110.61-6.85-37.64-1.27-75.22,1.55-112.85,2.3-75.69,1.49-151.39-1.16-227-3.34-46.79-1.35-93.62-2.77-140.43-1.78-4.35.09-4.34,6.64,0,6.74Z" transform="translate(-30 -50.37)"/><path class="cls-2" d="M953.69,56.55c-1.48,62.61,5.89,125.1,6.61,187.7l3.24-4.26a78,78,0,0,1-18.11.86c-5.22-.44-5,7.36,0,8a83.57,83.57,0,0,0,19.29-.18c2.41-.24,4.4-1.83,4.42-4.42.36-62.62-6.89-125.13-8.7-187.7-.13-4.34-6.64-4.35-6.74,0Z" transform="translate(-30 -50.37)"/><path class="cls-2" d="M31.89,67.85c151.94.72,303.63-11.44,455.59-9.92q56.85.57,113.61,4.22c12.06.79,23.86,1.63,35.92,1.64,31.89,0,63.78-.68,95.66-1.29,74.77-1.43,149.62-4.61,224.4-4.72a1.22,1.22,0,0,0,0-2.44c-61.73.09-123.52,2.64-185.24,3.94C734.9,60,698,60.79,661,61.2c-33.8.37-67-2.22-100.83-3.76-176.1-8-352.24,7.79-528.33,8.9a.76.76,0,0,0,0,1.51Z" transform="translate(-30 -50.37)"/><path class="cls-2" d="M965.74,235.27c-51.07-1.18-102.41.25-153.44,2.57-25.75,1.17-51.48,2.53-77.24,3.53s-51.61.73-77.37,1.8a.65.65,0,0,0,0,1.29c25.68,1,51.69-.53,77.37-1.5s51.49-2.34,77.24-3.55c51.14-2.4,102.28-2.06,153.44-3.26a.44.44,0,0,0,0-.88Z" transform="translate(-30 -50.37)"/><path class="cls-2" d="M960.88,60.3c-.54,0-1.08,0-1.62.08a.22.22,0,0,0,0,.45c.54.06,1.08.07,1.62.08a.31.31,0,0,0,0-.61Z" transform="translate(-30 -50.37)"/><path class="cls-2" d="M960.88,61.1a.5.5,0,0,0,0-1,.5.5,0,0,0,0,1Z" transform="translate(-30 -50.37)"/><path class="cls-2" d="M960.29,61c4.83,9.18,5.88,19.93,6.7,30.11,1,11.87,1,23.8,1.21,35.7.23,13.83.32,27.29-1.31,41.08-1.9,16-4.92,32.22-3.56,48.41.08,1,1.62,1,1.58,0-.66-16.32,1.66-32.25,3.64-48.41,1.75-14.25,1.52-28.2,1.28-42.49-.21-12.48-.35-25-1.5-37.39-.85-9.14-1.84-19.76-6.87-27.7a.68.68,0,0,0-1.18.69Z" transform="translate(-30 -50.37)"/><path class="cls-2" d="M44.38,57.23c-4.16,29.78-3.44,60-3.63,90-.17,27.13-1.53,56.4,8.18,82.24.37,1,1.93.57,1.58-.43-9.19-26.08-8.28-54.53-8.1-81.8.2-30-.13-60,2.95-89.84.06-.55-.89-.68-1-.13Z" transform="translate(-30 -50.37)"/><path class="cls-2" d="M890.68,102.76c-.26,13.35,1.12,26.67,2.91,39.88,1.86,13.69,3.51,27.91,6.76,41.33.15.6,1.14.48,1.09-.15-.95-12.44-4-24.88-5.86-37.22a364.85,364.85,0,0,1-3.94-43.84.49.49,0,0,0-1,0Z" transform="translate(-30 -50.37)"/><path class="cls-2" d="M102.85,96.28c.16,15.13-2.44,29.67-5.54,44.43-2.92,13.87-7,28.83-6.06,43.12a.63.63,0,0,0,1.26,0,395.08,395.08,0,0,1,6.64-44.76c2.9-14,5.67-28.46,4.45-42.79,0-.48-.76-.49-.75,0Z" transform="translate(-30 -50.37)"/><path class="cls-2" d="M403.65,130.14a.79.79,0,0,0,.16.54l.34.37a3.36,3.36,0,0,1,.34.38.82.82,0,0,1,.16.52c0,.49,0,1,0,1.57s-.05,1.08-.11,1.55a4.16,4.16,0,0,1-.3,1.16c-.14.3-.33.45-.57.45a.92.92,0,0,1-.93-.61,5.25,5.25,0,0,1-.34-1.4c-.06-.53-.12-1.05-.18-1.57a2.12,2.12,0,0,0-.41-1.14,13.92,13.92,0,0,0-4.16-.68,7.72,7.72,0,0,0-3.39.68,4.61,4.61,0,0,0-.72,1c-.24.44-.48.89-.73,1.36l-.7,1.36a3.29,3.29,0,0,1-.71,1,4.24,4.24,0,0,1-.14.64,4.44,4.44,0,0,1-.25.59,2.72,2.72,0,0,1-.52.68q-.37,1.41-.57,2.71c-.14.86-.24,1.73-.3,2.61s-.1,1.81-.11,2.8,0,2.07,0,3.25v5.63q.37,2.14.93,4.34a32,32,0,0,0,1.36,4.16,17.47,17.47,0,0,0,1.86,3.48,6.92,6.92,0,0,0,2.47,2.25A3.74,3.74,0,0,0,399,170a18.15,18.15,0,0,0,2.84-1.23,4.54,4.54,0,0,0,.39-1.55c0-.58.07-1.16.07-1.75s0-1.18,0-1.75a3.94,3.94,0,0,1,.41-1.59,3.21,3.21,0,0,1,1.13.16,3.68,3.68,0,0,1,.68.34l.48.34a.88.88,0,0,0,.57.16v6.63a4.09,4.09,0,0,1-2.5,2.41,11.49,11.49,0,0,1-4,.61,27.57,27.57,0,0,1-4.52-.43q-2.29-.41-4.06-.77-.73-.68-1.46-1.25c-.48-.38-1-.78-1.43-1.21s-.94-.88-1.41-1.39a11.71,11.71,0,0,1-1.38-1.84c-.24-1.18-.53-2.41-.87-3.68s-.64-2.59-.93-4-.54-2.74-.75-4.13a28.16,28.16,0,0,1-.32-4.23q.68-3.54,1.21-7.18a39.13,39.13,0,0,1,1.66-7,3.89,3.89,0,0,0,.5-.71c.12-.23.23-.45.34-.68s.23-.46.36-.71a3.74,3.74,0,0,1,.61-.77,13.23,13.23,0,0,1,1.79-2,14.45,14.45,0,0,1,2.39-1.79,13.45,13.45,0,0,1,2.88-1.29,10.94,10.94,0,0,1,3.34-.5q1.09.36,2,.57a16.57,16.57,0,0,1,1.7.48,9,9,0,0,1,1.52.68A5.9,5.9,0,0,1,403.65,130.14Z" transform="translate(-30 -50.37)"/><path class="cls-2" d="M428.5,168.39a9.49,9.49,0,0,1-1.2,1.64,5.79,5.79,0,0,1-1.34,1.14,9.88,9.88,0,0,1-4.54,1.63,10.89,10.89,0,0,1-4.29-.48,10.72,10.72,0,0,1-3.59-2,9.55,9.55,0,0,1-2.38-2.91c-.43-.82-.88-1.76-1.36-2.82a38.83,38.83,0,0,1-1.46-3.72,27.59,27.59,0,0,1-.79-5.5q-.11-2.77-.11-5.59a12,12,0,0,0-.07-1.3c0-.41-.07-.82-.09-1.25s0-.88,0-1.36a15,15,0,0,1,.16-1.68q.18-1,.34-1.89a10.24,10.24,0,0,0,.16-1.66,13.28,13.28,0,0,0,.27-1.46c.06-.48.13-.94.23-1.36a8.64,8.64,0,0,1,.32-1.13,2.39,2.39,0,0,1,.54-.87,29.57,29.57,0,0,0,2-3,16.26,16.26,0,0,1,2.18-2.91,9,9,0,0,1,2.88-2,7.33,7.33,0,0,1,4.11-.39,14.52,14.52,0,0,1,2.43.18,6.9,6.9,0,0,1,1.93.61,6.17,6.17,0,0,1,1.59,1.16,11.06,11.06,0,0,1,1.41,1.77,10.76,10.76,0,0,1,3.59,4.34,18.76,18.76,0,0,1,1.82,6.52c0,.45.06.87.09,1.25s.05.75.07,1.11,0,.75,0,1.16V147q0,2.09,0,4.57a24.36,24.36,0,0,1-.73,5.29,46,46,0,0,1-1.72,6.2A37.51,37.51,0,0,1,428.5,168.39Zm-4-.64q.27-.68.61-1.66c.23-.65.45-1.33.68-2s.45-1.42.66-2.14.38-1.34.5-1.89a16.15,16.15,0,0,0,.79-4.18q.12-2.09.11-4.18a15.07,15.07,0,0,1,.16-2.38,14.66,14.66,0,0,0,.16-2.34,23.1,23.1,0,0,0-.16-2.75,23,23,0,0,1-.16-2.75,6.25,6.25,0,0,1-.55-1.39l-.36-1.41c-.12-.47-.25-.94-.38-1.41a7.16,7.16,0,0,0-.57-1.39c-.24-.45-.48-.95-.7-1.48s-.48-1-.75-1.55a8.21,8.21,0,0,0-.93-1.36,4.17,4.17,0,0,0-1.21-1l-1.09,0-.77-.07c-.24,0-.51-.06-.79-.07l-1.12,0a13.15,13.15,0,0,0-2.23,2.88,20.81,20.81,0,0,0-1.5,3.57,7.37,7.37,0,0,0-.84,2.8q-.12,1.39-.11,2.79a46.06,46.06,0,0,0-.39,5.57q0,2.75.16,5.36t.5,5q.32,2.41.68,4.46a9.8,9.8,0,0,1,.52,1.38l.39,1.32a11.08,11.08,0,0,0,.38,1.11,2.56,2.56,0,0,0,.57.86.64.64,0,0,1,.45.14.72.72,0,0,1,.18.34l.11.48a1.11,1.11,0,0,0,.3.5,2.54,2.54,0,0,0,1.55.66,7.37,7.37,0,0,0,2.07-.07,6.41,6.41,0,0,0,1.93-.64A2.36,2.36,0,0,0,424.46,167.75Z" transform="translate(-30 -50.37)"/><path class="cls-2" d="M454.95,151.76a37.37,37.37,0,0,0,1.09-4.25q.41-2.11.77-4.25c.09-.54.2-1,.32-1.52s.25-1,.38-1.45l.45-1.63c.17-.59.34-1.29.53-2.11s.49-1.84.75-2.7a9.5,9.5,0,0,0,.39-2.75,3,3,0,0,1,.32-1.34,4.1,4.1,0,0,1,.86-1.18,4.5,4.5,0,0,1,1.23-.84,3.17,3.17,0,0,1,1.36-.32H469a.9.9,0,0,1,.57.16,2,2,0,0,1,.38.41c.12.17.25.36.39.59a3.51,3.51,0,0,0,.57.7,6.34,6.34,0,0,1-1.55,1.16,2.55,2.55,0,0,1-2.23-.21,7.08,7.08,0,0,0-.41,1.93,10.91,10.91,0,0,0,0,1.77c.06.59.14,1.19.23,1.79a13,13,0,0,1,.14,2v15.95q0,2.09-.09,3.54a16.42,16.42,0,0,0,.09,3,26.37,26.37,0,0,1,.21,2.7c0,.84,0,1.63,0,2.38s-.07,1.49-.11,2.18-.07,1.39-.07,2.09a4.73,4.73,0,0,1,1.93.38,4.48,4.48,0,0,1,1.41.91,1.54,1.54,0,0,1,.53,1.09,1.07,1.07,0,0,1-.68.93,2.53,2.53,0,0,1-1-.14,2.46,2.46,0,0,0-1-.14,2.35,2.35,0,0,0-1,.16,2.53,2.53,0,0,1-1,.16l-1.64-.32c.12-.09.13-.13,0-.11l-.61.11-1.11.18a10.74,10.74,0,0,1-1.43.09.72.72,0,0,0-.14-.5,1.3,1.3,0,0,0-.32-.23,1.74,1.74,0,0,1-.32-.2.62.62,0,0,1-.14-.48.65.65,0,0,1,.3-.57,3.58,3.58,0,0,1,.75-.38l.93-.39a2.72,2.72,0,0,0,.84-.57q-.37-2.46-.5-5c-.09-1.68-.13-3.4-.13-5.16s0-3.55.07-5.38.08-3.73.11-5.7c0-.33,0-.74.07-1.23s.1-1,.16-1.55.11-1.09.16-1.63.07-1,.07-1.5v-3.77a1,1,0,0,0,0-.41l-.11-.54a6.29,6.29,0,0,0-.25-.82,2.58,2.58,0,0,1,0-.54,1.44,1.44,0,0,0,0-.43,1.1,1.1,0,0,0-.16-.43,3.51,3.51,0,0,0-.5-.59,4.6,4.6,0,0,1,0,.64c0,.18,0,.38,0,.61a2.14,2.14,0,0,1-.16.66,26.61,26.61,0,0,0-1.36,4.63q-.59,2.77-1.32,5.63c-.12.4-.24.76-.37,1.09s-.17.61-.25.93l-.2.84c-.27,1.36-.48,2.43-.61,3.2s-.26,1.42-.37,1.93-.2,1-.3,1.43-.21,1-.36,1.75a16.58,16.58,0,0,0-.23,1.66c-.06.65-.14,1.28-.23,1.89a11.94,11.94,0,0,1-.32,1.55c-.12.43-.3.64-.54.64a2.47,2.47,0,0,1-1.39-.48,2.41,2.41,0,0,0-1.34-.48,8.84,8.84,0,0,0-.3-2.43l-.66-2.25q-.63-2.18-1.16-4.13t-1.16-4.09l-.82-2.59c-.27-.85-.64-1.86-1.09-3a14.41,14.41,0,0,1-.5-1.48,3.61,3.61,0,0,0-1-1.52V148a14.45,14.45,0,0,1-.13,1.84c-.09.68-.2,1.39-.32,2.13s-.23,1.49-.32,2.25a18,18,0,0,0-.14,2.18v13.13a6.91,6.91,0,0,1,1.27.11c.39.08.59.35.59.84a1.51,1.51,0,0,1-1,1.48,7.68,7.68,0,0,1-2.45.52,19.37,19.37,0,0,1-2.82,0c-.94-.07-1.63-.11-2.09-.11a.9.9,0,0,1-.57-.16,2,2,0,0,1-.39-.41c-.12-.17-.25-.36-.38-.59a3.68,3.68,0,0,0-.57-.7,5.65,5.65,0,0,0,.59-.68,2,2,0,0,1,.5-.5,1,1,0,0,1,.66-.16,3.18,3.18,0,0,1,1.11.39v-39.3a2.4,2.4,0,0,0-.54,0,1.52,1.52,0,0,0-.32.11,1.46,1.46,0,0,1-.32.11,2.22,2.22,0,0,1-.5,0,2.72,2.72,0,0,1-1-.16,3,3,0,0,0-1.07-.16,7.86,7.86,0,0,1-.54-.59,1.73,1.73,0,0,1-.27-.48,2.55,2.55,0,0,1-.11-.66c0-.27,0-.64,0-1.09a7.6,7.6,0,0,1,2.38-.39,21.16,21.16,0,0,1,2.75.14,20.81,20.81,0,0,1,2.75.5q1.34.34,2.43.66c.45,1,.91,1.91,1.38,2.82l1.43,2.77v1a44.4,44.4,0,0,1,2.45,6.16q1,3.29,2,6.29c.18.54.35,1,.5,1.36s.3.7.45,1l.48.93Z" transform="translate(-30 -50.37)"/><path class="cls-2" d="M483.48,169.25a9.11,9.11,0,0,1,1.93.18,3,3,0,0,1,1.27.54,1,1,0,0,1,.39.89,2.35,2.35,0,0,1-.73,1.25q-1.77,0-3.25.14c-1,.09-1.93.17-2.82.23a25.61,25.61,0,0,1-2.66,0,12.91,12.91,0,0,1-2.72-.41,4.36,4.36,0,0,1-.87-1.21,1.92,1.92,0,0,1-.14-.7,8,8,0,0,1,.59-.55,1.64,1.64,0,0,1,.5-.27,2.55,2.55,0,0,1,.68-.11l1.09,0a1.52,1.52,0,0,0,.48-.89,5.23,5.23,0,0,0,.09-1.23,11.52,11.52,0,0,0-.11-1.29,8.59,8.59,0,0,1-.09-1.18q0-2.32,0-4.38t.07-4c0-1.26.06-2.48.09-3.66s0-2.38,0-3.59q0-1.41.09-3.2a32.43,32.43,0,0,0-.09-4.11,12.86,12.86,0,0,1-.09-1.46c0-.45,0-.95,0-1.48s0-1.13,0-1.82,0-1.5,0-2.47c0-.7,0-1.32,0-1.89a1,1,0,0,0-.66-1.11,2.78,2.78,0,0,0-.8-.21l-.64,0a2.92,2.92,0,0,1-.61-.11,1.65,1.65,0,0,1-.68-.45,1.63,1.63,0,0,1-.82-.73.77.77,0,0,1,.07-.7,2.77,2.77,0,0,1,.61-.68c.27-.23.53-.46.77-.7a39.78,39.78,0,0,1,6.75-.59h6.84a4.29,4.29,0,0,0,.52,0l.3,0a2.29,2.29,0,0,1,.36,0,5.72,5.72,0,0,1,.77.09,5.54,5.54,0,0,1,2.64,1.23A11.15,11.15,0,0,1,495,131a16.91,16.91,0,0,1,1.68,3.25,21.49,21.49,0,0,1,1.06,3.57q0,2.18-.11,4.18a8.8,8.8,0,0,1-.84,3.45,7.25,7.25,0,0,1-1,2,14.16,14.16,0,0,1-1.45,1.7c-.53.53-1.08,1-1.66,1.52s-1.11,1-1.59,1.41a7.5,7.5,0,0,1-3,.89q-1.5.11-3.68.11a.75.75,0,0,0-.45.14,1.16,1.16,0,0,0-.34.27.8.8,0,0,0-.16.54v3.77c0,1,0,1.93-.14,2.89s-.17,1.91-.23,2.86-.08,1.91,0,2.86A12.84,12.84,0,0,0,483.48,169.25Zm0-24.76v4.73a2.55,2.55,0,0,0,.86.57,4.08,4.08,0,0,0,1,.27,3.75,3.75,0,0,0,1,0,2.26,2.26,0,0,0,.79-.25,10,10,0,0,0,2.43-2.32,8,8,0,0,0,1.48-3l.36-1.43a8.83,8.83,0,0,0,.21-1c0-.33.07-.72.09-1.18s0-1.09,0-1.91a20.27,20.27,0,0,0-.45-4.27,15.82,15.82,0,0,0-1.14-3.5,1.93,1.93,0,0,1-.75-.16l-.84-.34c-.3-.12-.64-.23-1-.34a4.47,4.47,0,0,0-1.23-.16h-2.86a20.06,20.06,0,0,0-.41,3.57q0,1.79,0,3.59c.06,1.19.14,2.39.23,3.59S483.48,143.31,483.48,144.49Z" transform="translate(-30 -50.37)"/><path class="cls-2" d="M510,128.69a6.28,6.28,0,0,1-.68,1.11c-.21.26-.4.48-.57.66a5.15,5.15,0,0,0-.41.5.94.94,0,0,0-.16.54q0,4.59-.29,9.07t-.57,9q-.27,4.5-.38,9.15t.25,9.61c0,.45,0,.71.11.77a2.52,2.52,0,0,0,.88.14h2.32l.57,0a5,5,0,0,0,.79,0h1V159.8a1.15,1.15,0,0,1,.68-.39,1.54,1.54,0,0,1,.59.07,5.66,5.66,0,0,1,.64.32,3.38,3.38,0,0,1,.91,1.7,10,10,0,0,1,.23,2.18q0,1.15-.11,2.36t-.11,2.25a3.05,3.05,0,0,0,.14.84,7,7,0,0,1,.2,1,5,5,0,0,1,0,1,1.52,1.52,0,0,1-.36.89,29.17,29.17,0,0,1-4.25.41c-1.41,0-2.79,0-4.13,0s-2.66,0-3.93.07a26.08,26.08,0,0,0-3.68.38,5.06,5.06,0,0,0-.71-.52l-.61-.38a1.65,1.65,0,0,1-.43-.41,1,1,0,0,1-.16-.59.7.7,0,0,1,.57-.79,7.06,7.06,0,0,1,1.34-.11,2.87,2.87,0,0,0,.79-1.52,17.33,17.33,0,0,0,.11-2.25,33.78,33.78,0,0,0,.55-3.84q.18-2.06.27-4.18t.11-4.16q0-2,0-3.82V141q0-1.09,0-2.32t-.11-2.45q-.09-1.23-.27-2.43a13.69,13.69,0,0,0-.55-2.3.82.82,0,0,0-.16-.52,1.76,1.76,0,0,0-.43-.38c-.18-.12-.39-.24-.61-.37a2.92,2.92,0,0,1-.71-.54v-1.91h1q1,0,2.25-.11c.8-.07,1.63-.14,2.48-.2s1.69-.11,2.52-.14a14.45,14.45,0,0,1,2.34.09c.45.06.69.15.71.27S510,128.14,510,128.69Z" transform="translate(-30 -50.37)"/><path class="cls-2" d="M537.45,134.73a1.46,1.46,0,0,1-.43-.87,7.72,7.72,0,0,1-.07-1q0-.52,0-1a1.17,1.17,0,0,0-.41-.79,4,4,0,0,1-.55,0,1.11,1.11,0,0,1-.36-.11,1.89,1.89,0,0,1-.39-.27l-.57-.54q-1.41,0-3.23.11a8.09,8.09,0,0,0-3.22.84,2.28,2.28,0,0,0-.77,1.7q0,1.07,0,2.66c0,1.31,0,2.36-.07,3.18s-.07,1.68-.07,2.59a13,13,0,0,0,.14,2c.09.61.17,1.17.23,1.68a8.53,8.53,0,0,1,0,1.5,3.42,3.42,0,0,1-.41,1.41,2.48,2.48,0,0,0,1,.5,7.89,7.89,0,0,0,1.43.25c.52,0,1,.08,1.59.09l1.5,0c0-.21,0-.48,0-.79a5.46,5.46,0,0,1,.11-.91,2.25,2.25,0,0,1,.27-.73.59.59,0,0,1,.54-.29l.52,0a1.66,1.66,0,0,1,.39.09,1.21,1.21,0,0,1,.38.27c.14.14.33.31.57.52a3.73,3.73,0,0,0-.3,1.93q.07,1.25.16,2.47a11.23,11.23,0,0,1,0,2.14c-.08.61-.34.91-.79.91a5.54,5.54,0,0,1-1-.59A3.92,3.92,0,0,1,533,153a1,1,0,0,1-.27-.68v-1h-4.59a8.74,8.74,0,0,0-.45,2.27,21.24,21.24,0,0,0,0,2.48q0,1.25.14,2.45t.09,2.2c0,.7,0,1.43,0,2.2s.06,1.53.09,2.27.06,1.44.09,2.09,0,1.21,0,1.66a15,15,0,0,0,1.93.55,14.62,14.62,0,0,0,1.75.25c.58,0,1.16.08,1.77.09l2,0a1.28,1.28,0,0,0,.79-1,7.77,7.77,0,0,0,.11-1.34,6.21,6.21,0,0,1,.13-1.32,1.49,1.49,0,0,1,.82-1,1.32,1.32,0,0,1,1.06.45,2.86,2.86,0,0,1,.57,1.13,6.46,6.46,0,0,1,.2,1.5q0,.82,0,1.5a2.14,2.14,0,0,1-.59,1.41q-.59.68-1.27,1.41h-4.68q-3.46,0-7-.11a55.64,55.64,0,0,1-7.77-.84v-1.86h3.73a27.28,27.28,0,0,0,.41-4q0-1.91,0-3.82t-.23-3.84c-.09-1.29-.14-2.64-.14-4.07V131H518v-1.86a26.56,26.56,0,0,1,2.8-.57l2.77-.38,2.77-.37a22.45,22.45,0,0,0,2.8-.54h9.27a2.75,2.75,0,0,1,.45.59,5,5,0,0,1,.34.59,1.5,1.5,0,0,1,.16.68,7.23,7.23,0,0,0,.23,1.63,7.84,7.84,0,0,1,.23,1.82,2.41,2.41,0,0,1-.45,1.48A2.22,2.22,0,0,1,537.45,134.73Z" transform="translate(-30 -50.37)"/><path class="cls-2" d="M564.43,135.91a1.28,1.28,0,0,1-.43-.84,9.16,9.16,0,0,1-.07-1.16c0-.43,0-.87,0-1.34a3.74,3.74,0,0,0-.41-1.43,1.55,1.55,0,0,0-1-.41,8.2,8.2,0,0,0-1.45,0c-.53.06-1.08.14-1.63.23a9.44,9.44,0,0,1-1.52.14,4,4,0,0,0-.41,1.59,10.66,10.66,0,0,0,0,1.75c.06.59.14,1.18.23,1.75a10.12,10.12,0,0,1,.14,1.59v27.44a17.45,17.45,0,0,1-.18,2.61,4,4,0,0,0,.18,2.11.69.69,0,0,0,.59.39l1,.16a2.2,2.2,0,0,1,.89.36,1.09,1.09,0,0,1,.38,1,2.24,2.24,0,0,1-.59.5,3.1,3.1,0,0,1-.61.32,1.84,1.84,0,0,1-.7.14h-8.54q-.73,0-.84-.59a7.21,7.21,0,0,1-.11-1.32,2.51,2.51,0,0,0,1.41-.45,2.5,2.5,0,0,1,1.41-.45q0-2.86,0-6t0-5.43q-.09-3,0-5.68t0-5.63v-6.63q0-2.86-.11-5.09a16.79,16.79,0,0,0-.84-4.41,11,11,0,0,0-2.89-.34,6.29,6.29,0,0,0-2.63.57,3.85,3.85,0,0,0-1.77,1.66,4.16,4.16,0,0,0-.25,2.88,2.35,2.35,0,0,1-.59.37,1.31,1.31,0,0,1-.59,0,1.26,1.26,0,0,1-.68-.41,9.8,9.8,0,0,0-.14-1.54c-.09-.58-.17-1.17-.23-1.77a11.43,11.43,0,0,1,0-1.77,4,4,0,0,1,.41-1.59,17.89,17.89,0,0,1,2.86-1.18,12.17,12.17,0,0,1,3.59-.45q2.14,0,4.77-.11t4.91-.11l2.43,0a20.25,20.25,0,0,1,2.57.21,9.32,9.32,0,0,1,2.16.57,2.47,2.47,0,0,1,1.29,1.07,10.62,10.62,0,0,1,.5,2.23,8.22,8.22,0,0,1,0,2.18,3.14,3.14,0,0,1-.73,1.63A2,2,0,0,1,564.43,135.91Z" transform="translate(-30 -50.37)"/><path class="cls-2" d="M588.15,134.73a1.46,1.46,0,0,1-.43-.87,7.7,7.7,0,0,1-.07-1q0-.52,0-1a1.17,1.17,0,0,0-.41-.79,4,4,0,0,1-.55,0,1.11,1.11,0,0,1-.36-.11,1.88,1.88,0,0,1-.39-.27l-.57-.54q-1.41,0-3.23.11a8.09,8.09,0,0,0-3.22.84,2.28,2.28,0,0,0-.77,1.7q0,1.07,0,2.66c0,1.31,0,2.36-.07,3.18s-.07,1.68-.07,2.59a13,13,0,0,0,.14,2c.09.61.17,1.17.23,1.68a8.53,8.53,0,0,1,0,1.5,3.43,3.43,0,0,1-.41,1.41,2.48,2.48,0,0,0,1,.5,7.89,7.89,0,0,0,1.43.25c.52,0,1,.08,1.59.09l1.5,0c0-.21,0-.48,0-.79a5.46,5.46,0,0,1,.11-.91,2.25,2.25,0,0,1,.27-.73.59.59,0,0,1,.54-.29l.52,0a1.66,1.66,0,0,1,.39.09,1.21,1.21,0,0,1,.38.27c.14.14.33.31.57.52a3.73,3.73,0,0,0-.3,1.93q.07,1.25.16,2.47a11.23,11.23,0,0,1,0,2.14c-.08.61-.34.91-.79.91a5.54,5.54,0,0,1-1-.59,3.91,3.91,0,0,1-.64-.59,1,1,0,0,1-.27-.68v-1h-4.59a8.74,8.74,0,0,0-.45,2.27,21.26,21.26,0,0,0,0,2.48q0,1.25.14,2.45t.09,2.2c0,.7,0,1.43,0,2.2s.06,1.53.09,2.27.06,1.44.09,2.09,0,1.21,0,1.66a15,15,0,0,0,1.93.55,14.62,14.62,0,0,0,1.75.25c.58,0,1.16.08,1.77.09l2,0a1.28,1.28,0,0,0,.79-1,7.77,7.77,0,0,0,.11-1.34,6.22,6.22,0,0,1,.13-1.32,1.49,1.49,0,0,1,.82-1,1.32,1.32,0,0,1,1.06.45,2.86,2.86,0,0,1,.57,1.13,6.45,6.45,0,0,1,.2,1.5q0,.82,0,1.5a2.14,2.14,0,0,1-.59,1.41q-.59.68-1.27,1.41h-4.68q-3.46,0-7-.11a55.64,55.64,0,0,1-7.77-.84v-1.86h3.73a27.3,27.3,0,0,0,.41-4q0-1.91,0-3.82t-.23-3.84c-.09-1.29-.14-2.64-.14-4.07V131h-3.73v-1.86a26.56,26.56,0,0,1,2.8-.57l2.77-.38,2.77-.37a22.45,22.45,0,0,0,2.8-.54h9.27a2.75,2.75,0,0,1,.45.59,5,5,0,0,1,.34.59,1.5,1.5,0,0,1,.16.68,7.23,7.23,0,0,0,.23,1.63,7.84,7.84,0,0,1,.23,1.82,2.41,2.41,0,0,1-.45,1.48A2.22,2.22,0,0,1,588.15,134.73Z" transform="translate(-30 -50.37)"/><path class="cls-2" d="M592.42,169.89h3.82a1.12,1.12,0,0,0,.59-.14,2,2,0,0,0,.41-.32,2.61,2.61,0,0,1,.39-.32,1,1,0,0,1,.57-.14V158.3a40.22,40.22,0,0,0-.48-6.52,31.54,31.54,0,0,1-.48-5.07q0-2.86-.11-5.63a17,17,0,0,0-.89-5v-3.91a4,4,0,0,0-1.36.25,6.74,6.74,0,0,1-1.22.34,1,1,0,0,1-.89-.2,1.93,1.93,0,0,1-.34-1.39.83.83,0,0,1,.16-.52,2,2,0,0,1,.43-.38c.18-.12.39-.25.64-.38a3.36,3.36,0,0,0,.72-.57l1-1a7.9,7.9,0,0,1,2.91-.84q1.45-.11,2.91-.11c.45,0,.86,0,1.21,0l1-.07c.35,0,.73,0,1.14,0a13.65,13.65,0,0,1,1.52.16l.27-.09a.82.82,0,0,1,.59,0,12.47,12.47,0,0,0,1.93,1.45,12.47,12.47,0,0,1,1.93,1.45,5.46,5.46,0,0,1,2.32,2,24.12,24.12,0,0,1,1.55,2.8q1,2,1.75,4a21,21,0,0,1,1.11,4.77q.32,2.41.52,5a17.17,17.17,0,0,1-.52,5.52,13.76,13.76,0,0,1-.64,4.18,21.19,21.19,0,0,1-1.64,3.82,33.44,33.44,0,0,1-2.18,3.45q-1.18,1.63-2.27,3.09a16.84,16.84,0,0,0-1.48.84,18.48,18.48,0,0,1-1.66.93,11.37,11.37,0,0,1-2,.77,9.65,9.65,0,0,1-2.59.32h-1.86a6.46,6.46,0,0,1-1.61.55c-.59.12-1.19.21-1.79.27s-1.21.1-1.8.11l-1.57,0a14.85,14.85,0,0,1-1.36-1.45A2.3,2.3,0,0,1,592.42,169.89ZM603,130.32a1.77,1.77,0,0,0-.48,1,10,10,0,0,0-.16,1.29,10.85,10.85,0,0,0,0,1.39c0,.45,0,.85,0,1.18q0,2.18.11,3.75c.07,1,.11,2.05.11,3a25.49,25.49,0,0,0,.18,3.09,31.13,31.13,0,0,1,.18,3.68v9.63a8.9,8.9,0,0,0,.5,2.91,8.77,8.77,0,0,1,.5,2.86,5.47,5.47,0,0,1-.14,1.29c-.09.38-.17.72-.23,1a2.74,2.74,0,0,0,0,.84,1.29,1.29,0,0,0,.41.75,2.65,2.65,0,0,0,1.46-.48,2.63,2.63,0,0,1,1.45-.48,1,1,0,0,1,.14-.57.77.77,0,0,1,.36-.3.83.83,0,0,1,.5-.14.8.8,0,0,0,.52-.13,1,1,0,0,0,.25-.32,1.64,1.64,0,0,0,.14-.5,9.52,9.52,0,0,0,1.14-2.34,14.49,14.49,0,0,0,.59-2.61,24.6,24.6,0,0,0,.2-2.8q0-1.43,0-2.88a11,11,0,0,1,.14-1.61c.09-.59.17-1.22.23-1.89a15.89,15.89,0,0,0,0-2.07,7.78,7.78,0,0,0-.41-2.16v-2.91c-.24-1.21-.45-2.41-.61-3.59s-.37-2.32-.61-3.41a18.22,18.22,0,0,0-1-3.06,7.65,7.65,0,0,0-1.68-2.52,2.84,2.84,0,0,0-1.59-.79A18.26,18.26,0,0,0,603,130.32Z" transform="translate(-30 -50.37)"/></svg>