<?xml version="1.0" encoding="utf-8"?>
<!-- Generator: Adobe Illustrator 21.1.0, SVG Export Plug-In . SVG Version: 6.00 Build 0)  -->
<svg version="1.1" id="Layer_1" xmlns="http://www.w3.org/2000/svg" xmlns:xlink="http://www.w3.org/1999/xlink" x="0px" y="0px"
	 viewBox="0 0 500 500" style="enable-background:new 0 0 500 500;" xml:space="preserve">
<style type="text/css">
	.st0{fill:#8C6338;}
	.st1{fill:#33ADC7;}
	.st2{fill:#F8B44D;}
	.st3{fill:#FFFFFF;}
	.st4{fill:#F7C992;}
	.st5{fill:#F9C68C;}
	.st6{fill:#713517;}
</style>
<g id="XMLID_260_">
	<g id="XMLID_240_">
		<path id="XMLID_126_" class="st0" d="M356.2,132.4c-0.5-1.5-1-2.9-1.6-4.4c-17.6-46.6-66.3-62.9-66.3-62.9s-46.4-27.2-110.2,0
			c-64,27.2-78.3,102.2-59.1,150.2s19.1,67.9,12.5,84.1l21.7-12.6c0,0-5,23.8-16.9,29.5c0,0,31.8,10.1,71-2.5h69.6
			c39.3,12.6,71,2.5,71,2.5c-12-5.6-16.9-29.4-16.9-29.4l21.7,12.6c-5.3-13.2-6.4-28.9,3.8-60.3
			C367.8,204.5,368.2,166.8,356.2,132.4z"/>
	</g>
	<g id="XMLID_247_">
		<path id="XMLID_124_" class="st1" d="M281.5,334.5l106.8,32.3c0,0-12.6,80.2-138.1,80.2c-145.9,0-138.1-80.2-138.1-80.2l91.3-32.9
			L281.5,334.5z"/>
	</g>
	<g id="XMLID_246_">
		<g id="XMLID_241_">
			<polygon id="XMLID_103_" class="st2" points="262.1,444.8 253.1,394.9 233.1,394.9 223.8,444.8 			"/>
		</g>
	</g>
	<g id="XMLID_259_">
		<polygon id="XMLID_88_" class="st2" points="219.3,367.9 233.1,394.9 253.1,394.9 267.5,367.9 243.4,348 		"/>
	</g>
	<g id="XMLID_233_">
		<path id="XMLID_596_" class="st3" d="M242.6,349.9l38.5,29.6c0,0,23.2-9.5,27.4-29.6c4.2-20.2-29.4-19.1-29.4-19.1"/>
	</g>
	<g id="XMLID_232_">
		<path id="XMLID_595_" class="st3" d="M242.6,349.9l-38.5,29.6c0,0-23.2-9.5-27.4-29.6c-4.2-20.2,29.4-19.1,29.4-19.1"/>
	</g>
	<g id="XMLID_242_">
		<path id="XMLID_87_" class="st4" d="M206.2,297.9c0,0,4.1,16-2.5,36.1c0,0,29.6,24.4,78.1,0.5c0,0-8.9-14.3-5.2-39.7L206.2,297.9z
			"/>
	</g>
	<g id="XMLID_239_">
		<path id="XMLID_82_" class="st5" d="M319.7,190.4c0,0,9.8-12.5,21.4-5.5s1,46.4-29.3,49.2l-146.6-2.4
			c-30.2-2.8-40.8-42.1-29.3-49.2c11.5-7,21.4,5.5,21.4,5.5L319.7,190.4z"/>
	</g>
	<g id="XMLID_236_">
		<path id="XMLID_86_" class="st6" d="M312.1,237.7l-0.6-7.2c16.4-1.5,26.7-15.2,29.7-27.9c1.6-6.9,0.7-12.9-2.1-14.6
			c-8.7-5.3-16.4,4.1-16.6,4.6l-5.6-4.5c4.1-5.2,14.8-13.1,26.1-6.2c5.7,3.5,7.6,12,5.2,22.3C344.7,219.6,332,235.9,312.1,237.7z"/>
	</g>
	<g id="XMLID_230_">
		<path id="XMLID_85_" class="st6" d="M164.9,235.3c-19.9-1.8-32.4-18.1-36.1-33.5c-2.4-10.3-0.4-18.9,5.2-22.3
			c11.3-6.9,22,1.1,26.1,6.2l-5.6,4.5l2.8-2.2l-2.8,2.2c-0.4-0.4-8-9.8-16.6-4.6c-2.8,1.7-3.6,7.8-2.1,14.6
			c3,12.9,13.4,26.5,29.7,27.9L164.9,235.3z"/>
	</g>
	<g id="XMLID_229_">
		<path id="XMLID_84_" class="st6" d="M239.2,349.5c-24.3,0-37.4-12.1-38.2-13l-1.7-1.6l0.7-2.2c6.2-18.7,2.5-33.9,2.5-34l6.9-1.8
			c0.1,0.7,4,16-1.9,35.7c6.3,4.7,29.9,18.8,69.1,0.1c-2.5-5.9-6.7-19.3-4-38.6l7.2,1c-3.3,23.7,4.7,37.3,4.7,37.4l1.9,3.3l-3.4,1.8
			C265.9,346.6,251.2,349.5,239.2,349.5z"/>
	</g>
	<g id="XMLID_216_">
		<path id="XMLID_83_" class="st6" d="M250.3,450.6c-59.1,0-100.8-12.9-123.8-38.2c-19.9-22-18-44.9-17.8-45.9l0.2-2.3l67.6-22.6
			l2.3,6.8l-63,21.1c0.1,5.9,1.8,22.5,16.1,38.2c21.4,23.4,62.3,35.8,118.4,35.8c107.1,0,129.9-59.8,133.9-74.2l-76.5-23.2l2.1-6.9
			l82.7,25l-0.5,3c-0.1,0.8-3.5,21.4-22.9,42C351.3,428.2,316.4,450.6,250.3,450.6z"/>
	</g>
	<g id="XMLID_231_">
		<path id="XMLID_41_" class="st5" d="M319.5,197.1c-2.4-39.6-43-78.4-43-78.4s-12.1-5.2-39.2,14.4c-26.9,19.5-46.2,51.5-80.7,51.7
			c3.5,42.7,18.5,121.1,79.6,121.1C290.8,305.8,316.5,257.9,319.5,197.1L319.5,197.1z"/>
	</g>
	<g id="XMLID_255_">
		<path id="XMLID_76_" class="st6" d="M236.5,309.4c-63.4,0-79.4-77.9-83.3-124.4l-0.4-3.9h3.9c22.7-0.1,38.6-15.1,55.5-31
			c7.3-6.9,14.8-14,23.1-20c27.8-20.2,41.3-15.4,42.7-14.8l0.6,0.2l0.5,0.5c1.7,1.6,39.5,38.5,43.8,77.8h0.5l-0.1,3.4
			C319.5,267.5,287.1,309.4,236.5,309.4z M160.8,188.2c4.2,44.3,19.8,114.1,75.7,114.1c66.6,0,77.8-73.2,79.5-105
			c-2.3-35-36.2-70.4-41.3-75.4c-2.4-0.5-13.6-1.5-35.2,14.1c-7.9,5.7-15.3,12.6-22.5,19.4C200.9,170.6,184.2,186.5,160.8,188.2z"/>
	</g>
	<g id="XMLID_257_">
		<path id="XMLID_75_" class="st6" d="M166.5,323.9c-18.3,0-30.5-3.8-31.3-4l-8.6-2.7l8.1-4c5.8-2.8,10.1-11.5,12.5-18.7l-23.1,13.4
			l3.9-9.7c6.2-15.4,6.3-34.5-12.5-81.5C97,170.5,108,91,176.5,61.8c62.8-26.7,108.5-2.7,113.1,0c4.9,1.7,50.9,18.8,68.2,64.8
			c0.6,1.5,1.1,2.9,1.6,4.5c11.9,34.4,12,73.1,0.4,109c-10.7,32.9-8.1,47.2-3.9,57.9l3.9,9.7l-23.1-13.4c2.5,7.2,6.8,15.9,12.5,18.7
			l8.1,4l-8.6,2.7c-1.3,0.4-33.4,10.2-73.2-2.5l2.2-6.8c27.1,8.7,50.6,6.3,61.9,4.1c-8.4-9.2-11.9-24.9-12.3-27.1l-1.6-7.9l20.8,12
			c-3.2-14.1-1-30.6,6.6-53.8c11.2-34.5,11.2-71.6-0.4-104.5c-0.5-1.5-1-2.8-1.6-4.2c-16.8-44.6-63.6-60.6-64.1-60.7l-0.7-0.4
			c-0.5-0.2-45.6-25.9-107.1,0.2c-64.3,27.3-74.5,102.1-57.2,145.5c16.4,40.9,18.9,61.9,15.4,77.7l20.6-12l-1.6,7.9
			c-0.5,2.1-3.9,17.8-12.3,26.9c11.3,2.1,34.8,4.5,61.9-4.1l2.2,6.8C192.7,322.3,178.4,323.9,166.5,323.9z"/>
	</g>
	<g id="XMLID_235_">
		<g id="XMLID_187_">
			<path id="XMLID_66_" class="st6" d="M204.6,383.6l-1.9-0.7c-1-0.4-25-10.4-29.5-32.2c-1.1-5.3,0-10.2,3.2-14
				c8.3-9.8,27.7-9.5,29.9-9.5l-0.2,7.2c-5-0.1-19.1,0.8-24.2,6.9c-1.7,2.1-2.3,4.6-1.6,7.9c3.2,14.9,18.1,23.5,23.4,26.1l36.8-28.3
				l4.4,5.7L204.6,383.6z"/>
		</g>
		<g id="XMLID_186_">
			<path id="XMLID_61_" class="st6" d="M280.4,383.6l-40.1-30.8l4.4-5.7l36.8,28.3c5.2-2.7,20.3-11.3,23.4-26.1
				c0.7-3.3,0.1-5.8-1.6-7.9c-5.1-6.1-19.2-7-24.2-6.9l-0.2-7.2c2.2-0.1,21.7-0.4,29.9,9.5c3.2,3.8,4.2,8.6,3.2,14
				c-4.5,21.7-28.5,31.8-29.5,32.2L280.4,383.6z"/>
		</g>
	</g>
	<g id="XMLID_258_">
		
			<rect id="XMLID_55_" x="203" y="416.3" transform="matrix(0.1849 -0.9828 0.9828 0.1849 -226.4428 566.8131)" class="st6" width="50.9" height="7.2"/>
	</g>
	<g id="XMLID_249_">
		
			<rect id="XMLID_45_" x="254.1" y="394.6" transform="matrix(0.9842 -0.1772 0.1772 0.9842 -70.3341 52.2991)" class="st6" width="7.2" height="50.7"/>
	</g>
	<g id="XMLID_245_">
		<polygon id="XMLID_44_" class="st6" points="255.3,398.5 230.9,398.5 216.1,369.4 222.5,366.2 235.4,391.3 251,391.3 264.3,366.2 
			270.7,369.6 		"/>
	</g>
</g>
</svg>
