<?xml version="1.0" encoding="utf-8"?>
<!-- Generator: Adobe Illustrator 21.1.0, SVG Export Plug-In . SVG Version: 6.00 Build 0)  -->
<svg version="1.1" id="Layer_1" xmlns="http://www.w3.org/2000/svg" xmlns:xlink="http://www.w3.org/1999/xlink" x="0px" y="0px"
	 viewBox="0 0 500 500" style="enable-background:new 0 0 500 500;" xml:space="preserve">
<style type="text/css">
	.st0{fill:#97D6D8;}
	.st1{fill:#F7C992;}
	.st2{fill:#F9C68C;}
	.st3{fill:#713517;}
	.st4{fill:#FFFFFF;}
	.st5{fill:#823E1E;}
	.st6{fill:#BD5C37;}
</style>
<g id="XMLID_222_">
	<g id="XMLID_184_">
		<path id="XMLID_270_" class="st0" d="M280.7,329.9l105.2,31.8c0,0-12.4,79-136,79c-143.7,0-136-79-136-79l89.9-32.4L280.7,329.9z"
			/>
	</g>
	<g id="XMLID_179_">
		<path id="XMLID_269_" class="st1" d="M206.3,293.9c0,0,4.1,15.8-2.5,35.5c0,0,29.2,24,76.9,0.5c0,0-8.7-14.1-5.1-39.1L206.3,293.9
			z"/>
	</g>
	<g id="XMLID_176_">
		<path id="XMLID_267_" class="st2" d="M318.2,188c0,0,9.7-12.3,21-5.4c11.4,6.9,1,45.7-28.8,48.4L166,228.7
			c-29.8-2.7-40.2-41.5-28.8-48.4c11.4-6.9,21,5.4,21,5.4L318.2,188z"/>
	</g>
	<g id="XMLID_175_">
		<path id="XMLID_268_" class="st3" d="M310.8,234.6l-0.6-7.1c16.1-1.4,26.3-14.9,29.3-27.5c1.6-6.8,0.7-12.7-2-14.3
			c-8.6-5.3-16.1,4.1-16.4,4.5l-5.5-4.4c4.1-5.1,14.6-12.9,25.7-6.1c5.6,3.5,7.5,11.8,5.1,22C342.7,216.8,330.4,232.8,310.8,234.6z"
			/>
	</g>
	<g id="XMLID_172_">
		<path id="XMLID_177_" class="st2" d="M156.7,155.6c0,0-3.3,146,79.5,146c61.9,0,86.1-63.4,81.6-136.3l0.1-10.9
			c0.2-27.6-22.5-50-50.1-49.3l-63.6,1.6C177.8,107.4,156.7,129.1,156.7,155.6L156.7,155.6z"/>
	</g>
	<g id="XMLID_171_">
		<path id="XMLID_262_" class="st3" d="M236.2,305.2c-17.9,0-33.4-6.5-45.8-19.4c-38.9-39.8-37.3-126.6-37.2-130.3l7.1,0.1
			c0,0.8-1.6,87.6,35.3,125.2c11.1,11.4,24.9,17.2,40.8,17.2c20.1,0,36.8-6.9,49.7-20.7c21-22.4,31.3-63.1,28.5-111.9l7.1-0.5
			c3.1,51.4-7.7,93-30.4,117.1C276.7,297.5,258.3,305.2,236.2,305.2z"/>
	</g>
	<g id="XMLID_170_">
		<path id="XMLID_256_" class="st3" d="M165.7,232.2c-19.6-1.8-31.9-17.8-35.5-33c-2.4-10.2-0.4-18.6,5.1-22
			c11.1-6.8,21.6,1.1,25.7,6.1l-5.5,4.4l2.7-2.2l-2.7,2.2c-0.4-0.4-7.9-9.7-16.4-4.5c-2.7,1.7-3.6,7.7-2,14.3
			c3,12.7,13.1,26.1,29.3,27.5L165.7,232.2z"/>
	</g>
	<g id="XMLID_169_">
		<path id="XMLID_248_" class="st3" d="M238.9,344.7c-23.9,0-36.8-12-37.7-12.8l-1.7-1.6l0.7-2.2c6.1-18.4,2.5-33.4,2.5-33.5
			l6.8-1.8c0.1,0.7,3.9,15.8-1.9,35.1c6.2,4.7,29.4,18.5,68,0.1c-2.5-5.9-6.6-19-3.9-38l7.1,1c-3.2,23.4,4.7,36.7,4.7,36.8l2,3.2
			l-3.3,1.8C265.2,341.9,250.8,344.7,238.9,344.7z"/>
	</g>
	<g id="XMLID_158_">
		<path id="XMLID_244_" class="st3" d="M249.8,444.3c-58.2,0-99.2-12.7-121.9-37.7c-19.6-21.6-17.7-44.2-17.6-45.2l0.2-2.3l92-33.1
			l2.4,6.7l-87.6,31.6c0.1,5.7,1.7,22.1,15.9,37.7c21,23.1,61.3,35.3,116.6,35.3c105.4,0,127.9-58.9,131.9-73l-102.1-30.8l2-6.8
			l108.2,32.8l-0.5,3c-0.1,0.8-3.5,21-22.6,41.4C349.4,422.2,315,444.3,249.8,444.3z"/>
	</g>
	<g id="XMLID_196_">
		<g id="XMLID_153_">
			<circle id="XMLID_607_" class="st4" cx="205" cy="204.6" r="20.3"/>
		</g>
		<g id="XMLID_188_">
			<circle id="XMLID_606_" class="st4" cx="270.1" cy="204.6" r="20.3"/>
		</g>
		<g id="XMLID_191_">
			<path id="XMLID_237_" class="st3" d="M205,227.3c-12.6,0-22.7-10.2-22.7-22.7c0-12.6,10.2-22.7,22.7-22.7
				c12.6,0,22.7,10.2,22.7,22.7C227.6,217.1,217.4,227.3,205,227.3z M205,186.6c-9.9,0-17.9,8-17.9,17.9c0,9.9,8,17.9,17.9,17.9
				c9.9,0,17.9-8,17.9-17.9C222.9,194.7,214.8,186.6,205,186.6z"/>
		</g>
		<g id="XMLID_190_">
			<path id="XMLID_227_" class="st3" d="M270.1,227.3c-12.6,0-22.7-10.2-22.7-22.7c0-12.6,10.2-22.7,22.7-22.7
				c12.6,0,22.7,10.2,22.7,22.7C292.7,217.1,282.6,227.3,270.1,227.3z M270.1,186.6c-9.9,0-17.9,8-17.9,17.9c0,9.9,8,17.9,17.9,17.9
				s17.9-8,17.9-17.9C288.1,194.7,279.9,186.6,270.1,186.6z"/>
		</g>
		<g id="XMLID_193_">
			<path id="XMLID_226_" class="st3" d="M249,206.8c-7.7-2.6-15.3-2.6-23,0l-1.6-4.4c8.6-3,17.5-3,26.1,0L249,206.8z"/>
		</g>
	</g>
	<g id="XMLID_194_">
		
			<rect id="XMLID_225_" x="167.6" y="179.5" transform="matrix(0.4892 -0.8722 0.8722 0.4892 -84.435 248.4848)" class="st3" width="4.7" height="33.6"/>
	</g>
	<g id="XMLID_195_">
		
			<rect id="XMLID_223_" x="288" y="194" transform="matrix(0.858 -0.5137 0.5137 0.858 -57.6276 184.1489)" class="st3" width="32.4" height="4.7"/>
	</g>
	<g id="XMLID_139_">
		<path id="XMLID_605_" class="st5" d="M237.5,59.3c-33.7,0-56.7,5.9-71.6,12.1c-14.3,6-23.2,20.3-22.1,35.9l5.1,73.3l14.6,12
			c0,0-4.3-41.8,3.6-54.6c8-12.8,28.2-19.8,41-16c12.7,3.8,29.4,3.3,29.4,3.3s16.7,0.6,29.4-3.3c12.7-3.8,33,3.2,41,16
			c8,12.8,3.6,54.6,3.6,54.6l14.6-12l5.1-73.3c1.1-15.4-7.9-29.9-22.1-35.9C294.2,65.1,271.2,59.3,237.5,59.3z"/>
	</g>
	<g id="XMLID_152_">
		<polygon id="XMLID_604_" class="st6" points="145.6,154 162.4,163.9 163.5,192.4 148.9,180.5 		"/>
	</g>
	<g id="XMLID_156_">
		<polygon id="XMLID_603_" class="st6" points="329.4,154 312.7,163.9 311.5,192.4 326.1,180.5 		"/>
	</g>
	<g id="XMLID_155_">
		<path id="XMLID_210_" class="st3" d="M163.5,195.9c-0.8,0-1.6-0.2-2.3-0.8l-14.6-12c-0.7-0.6-1.2-1.6-1.3-2.5l-5.1-73.3
			c-1.2-17,8.6-32.8,24.3-39.3c19.6-8.1,44.1-12.3,72.9-12.3s53.3,4.2,72.9,12.3c15.8,6.6,25.5,22.4,24.3,39.3l-5.1,73.3
			c-0.1,1-0.5,1.9-1.3,2.5l-10.8,8.8c-1.8,1.4-4.2,1.7-6.1,0.6c-2-1.1-3.1-3.1-3-5.4c1.8-23.4,0.5-41.2-3.6-47.6
			c-7.5-12-26.3-17.7-36.9-14.5c-13.1,3.9-29.9,3.5-30.6,3.5c-0.5,0-17.2,0.5-30.4-3.5c-10.6-3.2-29.4,2.5-36.9,14.5
			c-6,9.6-4.3,41-3.1,52.4c0.1,1.4-0.6,2.7-1.8,3.5C164.7,195.8,164.1,195.9,163.5,195.9z M274.8,117.1c13.6,0,29,7.7,36.1,18.8
			c6.1,9.8,5.9,33.2,4.8,48.4l6.9-5.7l5-71.7c1-13.9-7.1-26.9-20-32.3c-18.8-7.8-42.3-11.7-70.2-11.7s-51.5,3.9-70.2,11.7
			c-12.9,5.4-20.9,18.4-20,32.3l5,71.7l6.9,5.7c-0.8-13.4-1.6-38.3,4.9-48.4c8.6-13.7,30-22.1,44.9-17.5c12.1,3.7,28.1,3.2,28.2,3.1
			c0.4,0,16.5,0.5,28.5-3.1C268.7,117.6,271.7,117.1,274.8,117.1z"/>
	</g>
	<g id="XMLID_219_">
		<g id="XMLID_218_">
			<polygon id="XMLID_602_" class="st4" points="241.3,340.3 213.6,372.5 179.4,338.2 207.5,315.6 			"/>
		</g>
		<g id="XMLID_217_">
			<path id="XMLID_192_" class="st3" d="M213.6,376.1c-1,0-1.8-0.4-2.5-1.1l-34.2-34.3c-0.7-0.7-1.1-1.7-1.1-2.6s0.5-1.9,1.3-2.5
				l28-22.7c1.2-1,3-1.1,4.3-0.1l33.8,24.7c0.8,0.6,1.3,1.4,1.4,2.4s-0.2,1.9-0.8,2.7l-27.6,32.3c-0.6,0.7-1.6,1.2-2.5,1.2
				C213.7,376.1,213.7,376.1,213.6,376.1z M184.7,338.5l28.7,28.8l22.7-26.4L207.5,320L184.7,338.5z"/>
		</g>
		<g id="XMLID_221_">
			<polygon id="XMLID_601_" class="st4" points="241.3,340.3 268.9,372.5 303.1,338.2 275.2,315.6 			"/>
		</g>
		<g id="XMLID_220_">
			<path id="XMLID_178_" class="st3" d="M268.9,376.1h-0.1c-1,0-1.9-0.5-2.5-1.2l-27.6-32.3c-0.6-0.7-1-1.7-0.8-2.7
				c0.1-1,0.6-1.9,1.4-2.4l33.8-24.7c1.3-1,3.1-1,4.3,0.1l28,22.7c0.8,0.6,1.2,1.6,1.3,2.5c0,1-0.4,2-1.1,2.6L271.4,375
				C270.7,375.7,269.9,376.1,268.9,376.1z M246.5,340.9l22.7,26.4l28.7-28.8L275,320L246.5,340.9z"/>
		</g>
	</g>
</g>
</svg>
